<?xml version="1.0" encoding="UTF-8" standalone="no"?>
<!-- Created with Inkscape (http://www.inkscape.org/) -->

<svg
   xmlns:dc="http://purl.org/dc/elements/1.1/"
   xmlns:cc="http://creativecommons.org/ns#"
   xmlns:rdf="http://www.w3.org/1999/02/22-rdf-syntax-ns#"
   xmlns:svg="http://www.w3.org/2000/svg"
   xmlns="http://www.w3.org/2000/svg"
   xmlns:sodipodi="http://sodipodi.sourceforge.net/DTD/sodipodi-0.dtd"
   xmlns:inkscape="http://www.inkscape.org/namespaces/inkscape"
   width="1080"
   height="1920"
   viewBox="0 0 285.75 508"
   version="1.1"
   id="svg16"
   inkscape:version="0.92.4 (5da689c313, 2019-01-14)"
   sodipodi:docname="FTP_Paths.svg"
   inkscape:export-filename="D:\UnityProjects\followThePath\follow_The_Path\Graphics\g_RightCurveEnter_LeftStraightExit.png"
   inkscape:export-xdpi="96"
   inkscape:export-ydpi="96">
  <defs
     id="defs10">
    <inkscape:path-effect
       effect="bspline"
       id="path-effect984"
       is_visible="true"
       weight="33.333333"
       steps="2"
       helper_size="0"
       apply_no_weight="true"
       apply_with_weight="true"
       only_selected="false" />
    <inkscape:path-effect
       effect="bspline"
       id="path-effect892"
       is_visible="true"
       weight="33.333333"
       steps="2"
       helper_size="0"
       apply_no_weight="true"
       apply_with_weight="true"
       only_selected="false" />
  </defs>
  <sodipodi:namedview
     id="base"
     pagecolor="#ffffff"
     bordercolor="#666666"
     borderopacity="1.0"
     inkscape:pageopacity="0.0"
     inkscape:pageshadow="2"
     inkscape:zoom="0.25"
     inkscape:cx="2038.4675"
     inkscape:cy="909.03562"
     inkscape:document-units="px"
     inkscape:current-layer="layer2"
     showgrid="false"
     units="px"
     inkscape:window-width="1920"
     inkscape:window-height="1027"
     inkscape:window-x="1912"
     inkscape:window-y="-8"
     inkscape:window-maximized="1" />
  <metadata
     id="metadata13">
    <rdf:RDF>
      <cc:Work
         rdf:about="">
        <dc:format>image/svg+xml</dc:format>
        <dc:type
           rdf:resource="http://purl.org/dc/dcmitype/StillImage" />
        <dc:title />
      </cc:Work>
    </rdf:RDF>
  </metadata>
  <g
     inkscape:groupmode="layer"
     id="layer4"
     inkscape:label="Start_Background"
     style="display:none"
     sodipodi:insensitive="true">
    <path
       style="fill:#999999;stroke-width:0.99999994"
       d="M 0,0 V 1920 H 1080 V 0 H 666 V 527.23828 A 450,450 0 0 1 994,959.85352 450,450 0 0 1 544,1409.8535 450,450 0 0 1 94,959.85352 450,450 0 0 1 416,529.55078 V 0 Z"
       transform="scale(0.26458333)"
       id="rect84"
       inkscape:connector-curvature="0"
       inkscape:export-filename="D:\UnityProjects\follow_The_Path\Graphics\widerPathStart.png"
       inkscape:export-xdpi="130.63"
       inkscape:export-ydpi="130.63" />
  </g>
  <g
     inkscape:groupmode="layer"
     id="layer6"
     inkscape:label="Start - Bottom"
     style="display:none"
     sodipodi:insensitive="true">
    <path
       inkscape:connector-curvature="0"
       style="display:inline;fill:#000000;stroke-width:0.26458332"
       d="M 117.475,-0.03876122 V 3.87765e-5 h -7.40833 V 140.11031 A 119.0625,119.0625 0 0 0 24.870837,253.96124 119.0625,119.0625 0 0 0 143.93333,373.02374 119.0625,119.0625 0 0 0 262.99584,253.96124 119.0625,119.0625 0 0 0 176.2125,139.49846 V -1.2235026e-6 h -5.82084 V -0.03880122 Z"
       id="rect131-1" />
  </g>
  <g
     inkscape:label="Start - Wall"
     inkscape:groupmode="layer"
     id="layer1"
     transform="translate(0,211)"
     style="display:none"
     sodipodi:insensitive="true">
    <path
       style="fill:#999999;stroke-width:0.26458332"
       d="M 0,-211 V 296.99999 H 285.75 V -211 H 170.40252 V -72.972769 A 119.0625,119.0625 0 0 1 263.00668,42.999997 119.0625,119.0625 0 0 1 143.94418,162.0625 119.0625,119.0625 0 0 1 24.881685,42.999997 119.0625,119.0625 0 0 1 117.48585,-72.93401 V -211 Z"
       id="rect131"
       inkscape:connector-curvature="0"
       inkscape:export-filename="D:\UnityProjects\follow_The_Path\followThePath\Assets\Graphics\g_startFloor_01.png"
       inkscape:export-xdpi="130.63"
       inkscape:export-ydpi="130.63" />
  </g>
  <g
     inkscape:groupmode="layer"
     id="layer7"
     inkscape:label="LeftLane_LeftExit_Background"
     style="display:none"
     sodipodi:insensitive="true">
    <path
       style="fill:#4d4d4d;stroke-width:0.99999994"
       d="M 2.6425781,0 V 1920 H 25.5 V 0 Z M 275.5,0 v 1920 h 807.1426 V 0 Z"
       transform="scale(0.26458333)"
       id="rect32"
       inkscape:connector-curvature="0"
       inkscape:export-filename="D:\UnityProjects\follow_The_Path\Graphics\g_LeftLane_LeftExit.png"
       inkscape:export-xdpi="96"
       inkscape:export-ydpi="96" />
  </g>
  <g
     inkscape:groupmode="layer"
     id="layer9"
     inkscape:label="MidLane_MidExit_Background"
     style="display:none"
     sodipodi:insensitive="true">
    <path
       style="fill:#000000;stroke-width:0.99999994"
       d="M 0,0 V 1920 H 415 V 0 Z m 665,0 v 1920 h 415 V 0 Z"
       transform="scale(0.26458333)"
       id="rect70"
       inkscape:connector-curvature="0" />
  </g>
  <g
     inkscape:groupmode="layer"
     id="layer20"
     inkscape:label="MidLane_LeftExit_Background"
     style="display:none">
    <path
       style="fill:#000000;stroke-width:0.99999994"
       d="m 0,0 v 1920 h 415 v -50 L 25.478516,49.988281 25.5,0 Z M 275.5,0 V 49.988281 L 665,1870 v 50 h 415 V 0 Z"
       transform="scale(0.26458333)"
       id="rect76"
       inkscape:connector-curvature="0" />
  </g>
  <g
     inkscape:groupmode="layer"
     id="layer22"
     inkscape:label="MidLane_RightExit_Background"
     style="display:none">
    <path
       style="opacity:1;fill:#000000;fill-opacity:1;stroke:#6e0000;stroke-width:0.99999994;stroke-opacity:1"
       mask="none"
       d="m 0,0 v 1920 h 416 v -50 L 806.5,50 V 0 Z M 1056.5,0 V 50 L 666,1870 v 50 h 414 V 0 Z"
       transform="scale(0.26458333)"
       id="rect100"
       inkscape:connector-curvature="0"
       inkscape:export-filename="D:\UnityProjects\follow_The_Path\Graphics\g_RightLane_LeftExit.png"
       inkscape:export-xdpi="95.950027"
       inkscape:export-ydpi="95.950027" />
  </g>
  <g
     inkscape:groupmode="layer"
     id="layer11"
     inkscape:label="RightLane_RightExit_Background"
     style="display:none"
     sodipodi:insensitive="true">
    <path
       style="fill:#000000;stroke-width:0.99999994"
       d="M 0,0 V 1920 H 804.5 V 0 Z M 1054.5,0 V 1920 H 1080 V 0 Z"
       transform="scale(0.26458333)"
       id="rect107"
       inkscape:export-filename="D:\UnityProjects\follow_The_Path\Graphics\g_MidLane_MidExit.png"
       inkscape:export-xdpi="96"
       inkscape:export-ydpi="96"
       inkscape:connector-curvature="0" />
  </g>
  <g
     inkscape:groupmode="layer"
     id="layer13"
     inkscape:label="LeftLane_MidExit_Background"
     style="display:none"
     sodipodi:insensitive="true">
    <path
       style="fill:#000000;stroke-width:0.99999994"
       d="m 0,0 v 1920 h 25.5 v -49.9004 L 416,50 V 0 Z M 666,0 V 50 L 275.5,1870.0996 V 1920 H 1080 V 0 Z"
       transform="scale(0.26458333)"
       id="rect144"
       inkscape:connector-curvature="0" />
  </g>
  <g
     inkscape:groupmode="layer"
     id="layer15"
     inkscape:label="LeftLane_RightExit_Background"
     style="display:none"
     sodipodi:insensitive="true">
    <path
       style="fill:#000000;stroke-width:0.99999994"
       d="m 0,0 v 1920 h 25.5 v -49.9004 L 806.5,49.599609 V 0 Z M 1054.5,0 V 49.599609 L 275.5,1870.0996 V 1920 H 1080 V 0 Z"
       transform="scale(0.26458333)"
       id="rect173"
       inkscape:connector-curvature="0" />
  </g>
  <g
     inkscape:groupmode="layer"
     id="layer16"
     inkscape:label="RightLane_MidExit_Background"
     style="display:none"
     sodipodi:insensitive="true">
    <path
       style="display:inline;fill:#000000;stroke-width:0.26458332"
       d="m 285.75,0 v 508 h -6.74688 V 494.79719 L 175.68333,13.22917 V 0 Z M 109.5375,0 V 13.22917 L 212.85729,494.79719 V 508 H 0 V 0 Z"
       id="rect144-7"
       inkscape:connector-curvature="0"
       inkscape:export-filename="D:\UnityProjects\follow_The_Path\Graphics\g_LeftLane_RightExit.png"
       inkscape:export-xdpi="96"
       inkscape:export-ydpi="96" />
  </g>
  <g
     inkscape:groupmode="layer"
     id="layer18"
     inkscape:label="RightLane_LeftExit_Background"
     style="display:none"
     sodipodi:insensitive="true">
    <path
       style="display:inline;fill:#000000;stroke-width:0.26458332"
       d="m 285.75,0 v 508 h -6.74688 V 494.79719 L 72.36354,13.12323 V 0 Z M 6.7468795,0 V 13.12323 L 212.85729,494.79719 V 508 H -5e-7 V 0 Z"
       id="rect173-6"
       inkscape:connector-curvature="0" />
  </g>
  <g
     inkscape:groupmode="layer"
     id="layer8"
     inkscape:label="LeftCurveEnter_RightStraightExit_Background"
     style="display:inline">
    <path
       style="opacity:1;fill:#000000;fill-opacity:1;stroke:#000000;stroke-width:0;stroke-miterlimit:4;stroke-dasharray:none;stroke-opacity:1"
       d="M 1.1224121,-0.13288837 V 508.74818 h 5.312337 C 5.9676468,494.18527 5.5180211,469.45459 6.5138143,442.28299 8.091162,399.24287 8.9203635,352.43197 31.851803,315.47627 l 0.468704,-0.75395 0.507463,-0.72864 c 27.833436,-39.90041 62.270859,-63.94654 99.00429,-75.4569 26.52262,-8.31083 53.43807,-10.81649 81.36299,-11.77344 l -0.094,-226.89622837 z m 278.1251279,0 0.12145,291.98424837 -32.71841,0.36327 c -39.31453,0.43601 -70.63291,1.79364 -95.03916,9.44129 -24.09172,7.54909 -43.0255,19.80446 -63.726863,49.09984 -4.886097,8.55773 -13.835202,54.81608 -15.269353,93.9488 -0.978847,26.70922 -0.445717,51.03156 0.0041,64.04362 H 286.24556 V -0.13288837 Z"
       id="rect995"
       inkscape:connector-curvature="0" />
  </g>
  <g
     inkscape:groupmode="layer"
     id="layer2"
     inkscape:label="RIghtCurveEnter_LeftStraightExit_Background"
     style="display:none">
    <path
       style="opacity:1;fill:#000000;fill-opacity:1;stroke:#000000;stroke-width:0;stroke-miterlimit:4;stroke-dasharray:none;stroke-opacity:1"
       d="m 285.75188,0 v 508.88106 h -5.32598 c 0.4683,-14.5629 0.91908,-39.29359 -0.0793,-66.46518 -1.58141,-43.04012 -2.41274,-89.85102 -25.40306,-126.80672 l -0.46991,-0.75393 -0.50877,-0.72867 C 226.05994,274.22615 191.53408,250.18003 154.7063,238.66967 128.11556,230.35884 101.131,227.85318 73.134377,226.89623 L 73.228658,0 Z M 6.9124974,0 6.7907356,291.98424 39.59317,292.34752 c 39.415492,0.436 70.81429,1.79363 95.28322,9.44128 24.15359,7.5491 43.13599,19.80446 63.89053,49.09984 4.89864,8.55774 13.87072,54.81609 15.30856,93.94881 0.98136,26.70921 0.44686,51.03156 -0.004,64.04361 H -0.10349411 V 0 Z"
       id="rect995-4"
       inkscape:connector-curvature="0" />
  </g>
  <g
     inkscape:groupmode="layer"
     id="layer3"
     inkscape:label="Enter"
     style="display:none"
     sodipodi:insensitive="true">
    <rect
       style="fill:#008000;stroke-width:0.29581314"
       id="rect3727-5-9"
       width="66.145836"
       height="13.229167"
       x="110.06667"
       y="494.76422" />
    <rect
       style="fill:#000080;stroke-width:0.29344663"
       id="rect3727-5-3-8"
       width="65.616669"
       height="13.123334"
       x="213.38646"
       y="494.83368" />
    <rect
       style="fill:#800000;stroke-width:0.29581314"
       id="rect3727-5-3-9-6"
       width="66.145836"
       height="13.229167"
       x="6.7468715"
       y="494.7973" />
  </g>
  <g
     inkscape:groupmode="layer"
     id="layer5"
     inkscape:label="Exit"
     style="display:none"
     sodipodi:insensitive="true">
    <rect
       style="display:inline;fill:#00ff00;stroke-width:0.29581314"
       id="rect3727-5-9-4"
       width="66.145836"
       height="13.229167"
       x="110.06666"
       y="0" />
    <rect
       style="display:inline;fill:#0000ff;stroke-width:0.29344663"
       id="rect3727-5-3-8-0"
       width="65.616669"
       height="13.123334"
       x="213.38644"
       y="0" />
    <rect
       style="display:inline;fill:#ff0000;stroke-width:0.29581314"
       id="rect3727-5-3-9-6-6"
       width="66.145836"
       height="13.229167"
       x="6.7468567"
       y="-1.1368684e-13" />
  </g>
</svg>
