<?xml version="1.0" encoding="UTF-8" standalone="no"?>
<!-- Created with Inkscape (http://www.inkscape.org/) -->

<svg
   xmlns:dc="http://purl.org/dc/elements/1.1/"
   xmlns:cc="http://creativecommons.org/ns#"
   xmlns:rdf="http://www.w3.org/1999/02/22-rdf-syntax-ns#"
   xmlns:svg="http://www.w3.org/2000/svg"
   xmlns="http://www.w3.org/2000/svg"
   xmlns:sodipodi="http://sodipodi.sourceforge.net/DTD/sodipodi-0.dtd"
   xmlns:inkscape="http://www.inkscape.org/namespaces/inkscape"
   width="1080"
   height="1920"
   viewBox="0 0 285.75 508"
   version="1.1"
   id="svg16"
   inkscape:version="0.92.4 (5da689c313, 2019-01-14)"
   sodipodi:docname="g_Start.svg">
  <defs
     id="defs10" />
  <sodipodi:namedview
     id="base"
     pagecolor="#ffffff"
     bordercolor="#666666"
     borderopacity="1.0"
     inkscape:pageopacity="0.0"
     inkscape:pageshadow="2"
     inkscape:zoom="0.35"
     inkscape:cx="-52.422599"
     inkscape:cy="821.02761"
     inkscape:document-units="px"
     inkscape:current-layer="layer4"
     showgrid="false"
     units="px"
     inkscape:window-width="1920"
     inkscape:window-height="1027"
     inkscape:window-x="1912"
     inkscape:window-y="-8"
     inkscape:window-maximized="1" />
  <metadata
     id="metadata13">
    <rdf:RDF>
      <cc:Work
         rdf:about="">
        <dc:format>image/svg+xml</dc:format>
        <dc:type
           rdf:resource="http://purl.org/dc/dcmitype/StillImage" />
        <dc:title />
      </cc:Work>
    </rdf:RDF>
  </metadata>
  <g
     inkscape:groupmode="layer"
     id="layer4"
     inkscape:label="Background"
     style="display:inline">
    <path
       style="fill:#999999;stroke-width:0.99999994"
       d="M 0,0 V 1920 H 1080 V 0 H 666 V 527.23828 A 450,450 0 0 1 994,959.85352 450,450 0 0 1 544,1409.8535 450,450 0 0 1 94,959.85352 450,450 0 0 1 416,529.55078 V 0 Z"
       transform="scale(0.26458333)"
       id="rect84"
       inkscape:connector-curvature="0"
       inkscape:export-filename="D:\UnityProjects\follow_The_Path\Graphics\g_Start.png"
       inkscape:export-xdpi="96"
       inkscape:export-ydpi="96" />
  </g>
  <g
     inkscape:groupmode="layer"
     id="layer6"
     inkscape:label="Start - Bottom"
     style="display:none"
     sodipodi:insensitive="true">
    <path
       inkscape:connector-curvature="0"
       style="display:inline;fill:#000000;stroke-width:0.26458332"
       d="M 117.475,-0.03876122 V 3.87765e-5 h -7.40833 V 140.11031 A 119.0625,119.0625 0 0 0 24.870837,253.96124 119.0625,119.0625 0 0 0 143.93333,373.02374 119.0625,119.0625 0 0 0 262.99584,253.96124 119.0625,119.0625 0 0 0 176.2125,139.49846 V -1.2235026e-6 h -5.82084 V -0.03880122 Z"
       id="rect131-1" />
  </g>
  <g
     inkscape:label="Start - Wall"
     inkscape:groupmode="layer"
     id="layer1"
     transform="translate(0,211)"
     style="display:none"
     sodipodi:insensitive="true">
    <path
       style="fill:#999999;stroke-width:0.26458332"
       d="M 0,-211 V 296.99999 H 285.75 V -211 H 170.40252 V -72.972769 A 119.0625,119.0625 0 0 1 263.00668,42.999997 119.0625,119.0625 0 0 1 143.94418,162.0625 119.0625,119.0625 0 0 1 24.881685,42.999997 119.0625,119.0625 0 0 1 117.48585,-72.93401 V -211 Z"
       id="rect131"
       inkscape:connector-curvature="0"
       inkscape:export-filename="D:\UnityProjects\follow_The_Path\followThePath\Assets\Graphics\g_startFloor_01.png"
       inkscape:export-xdpi="130.63"
       inkscape:export-ydpi="130.63" />
  </g>
  <g
     inkscape:groupmode="layer"
     id="layer3"
     inkscape:label="Enter"
     style="display:none"
     sodipodi:insensitive="true">
    <rect
       style="fill:#008000;stroke-width:0.29581314"
       id="rect3727-5-9"
       width="66.145836"
       height="13.229167"
       x="110.06667"
       y="494.76422" />
    <rect
       style="fill:#000080;stroke-width:0.29344663"
       id="rect3727-5-3-8"
       width="65.616669"
       height="13.123334"
       x="213.38646"
       y="494.83368" />
    <rect
       style="fill:#800000;stroke-width:0.29581314"
       id="rect3727-5-3-9-6"
       width="66.145836"
       height="13.229167"
       x="6.7468715"
       y="494.7973" />
  </g>
  <g
     inkscape:groupmode="layer"
     id="layer5"
     inkscape:label="Exit"
     style="display:none"
     sodipodi:insensitive="true">
    <rect
       style="display:inline;fill:#00ff00;stroke-width:0.29581314"
       id="rect3727-5-9-4"
       width="66.145836"
       height="13.229167"
       x="110.06666"
       y="0" />
    <rect
       style="display:inline;fill:#0000ff;stroke-width:0.29344663"
       id="rect3727-5-3-8-0"
       width="65.616669"
       height="13.123334"
       x="213.38644"
       y="0" />
    <rect
       style="display:inline;fill:#ff0000;stroke-width:0.29581314"
       id="rect3727-5-3-9-6-6"
       width="66.145836"
       height="13.229167"
       x="6.7468567"
       y="-1.1368684e-13" />
  </g>
</svg>
